<mxfile host="app.diagrams.net" modified="2024-09-25T09:26:07.447Z" agent="Mozilla/5.0 (X11; Linux x86_64) AppleWebKit/537.36 (KHTML, like Gecko) Chrome/127.0.0.0 Safari/537.36" etag="251D5f82CQ3Cc2GUqM_7" version="24.6.4" type="device">
  <diagram name="Page-1" id="u0bHgL9ryZXh9v7xUjcb">
    <mxGraphModel dx="2074" dy="1146" grid="1" gridSize="10" guides="1" tooltips="1" connect="1" arrows="1" fold="1" page="1" pageScale="1" pageWidth="827" pageHeight="1169" math="1" shadow="0">
      <root>
        <mxCell id="0" />
        <mxCell id="1" parent="0" />
        <mxCell id="wTl5N8vqSqgQVyRXSi7D-1" value="Observation model" style="rounded=1;whiteSpace=wrap;html=1;fillColor=#333333;fontColor=#ffffff;strokeColor=#314354;fontFamily=Roboto;fontSource=https%3A%2F%2Ffonts.googleapis.com%2Fcss%3Ffamily%3DRoboto;fontSize=11;" vertex="1" parent="1">
          <mxGeometry x="440" y="360" width="160" height="80" as="geometry" />
        </mxCell>
        <mxCell id="wTl5N8vqSqgQVyRXSi7D-2" value="" style="endArrow=classic;html=1;rounded=0;exitX=1;exitY=0.5;exitDx=0;exitDy=0;strokeWidth=2;" edge="1" parent="1" source="wTl5N8vqSqgQVyRXSi7D-1">
          <mxGeometry width="50" height="50" relative="1" as="geometry">
            <mxPoint x="670" y="730" as="sourcePoint" />
            <mxPoint x="640" y="400" as="targetPoint" />
          </mxGeometry>
        </mxCell>
        <mxCell id="wTl5N8vqSqgQVyRXSi7D-3" value="" style="endArrow=classic;html=1;rounded=0;strokeWidth=2;entryX=0;entryY=0.5;entryDx=0;entryDy=0;" edge="1" parent="1" target="wTl5N8vqSqgQVyRXSi7D-1">
          <mxGeometry width="50" height="50" relative="1" as="geometry">
            <mxPoint x="400" y="400" as="sourcePoint" />
            <mxPoint x="570" y="410" as="targetPoint" />
          </mxGeometry>
        </mxCell>
        <mxCell id="wTl5N8vqSqgQVyRXSi7D-4" value="Physical model" style="rounded=1;whiteSpace=wrap;html=1;fillColor=#333333;fontColor=#ffffff;strokeColor=#314354;fontFamily=Roboto;fontSource=https%3A%2F%2Ffonts.googleapis.com%2Fcss%3Ffamily%3DRoboto;fontSize=11;opacity=20;" vertex="1" parent="1">
          <mxGeometry x="140" y="360" width="160" height="80" as="geometry" />
        </mxCell>
        <mxCell id="wTl5N8vqSqgQVyRXSi7D-5" value="" style="endArrow=classic;html=1;rounded=0;exitX=1;exitY=0.5;exitDx=0;exitDy=0;strokeWidth=2;opacity=20;" edge="1" parent="1" source="wTl5N8vqSqgQVyRXSi7D-4">
          <mxGeometry width="50" height="50" relative="1" as="geometry">
            <mxPoint x="370" y="730" as="sourcePoint" />
            <mxPoint x="340" y="400" as="targetPoint" />
          </mxGeometry>
        </mxCell>
        <mxCell id="wTl5N8vqSqgQVyRXSi7D-6" value="" style="endArrow=classic;html=1;rounded=0;strokeWidth=2;entryX=0;entryY=0.5;entryDx=0;entryDy=0;opacity=20;" edge="1" parent="1" target="wTl5N8vqSqgQVyRXSi7D-4">
          <mxGeometry width="50" height="50" relative="1" as="geometry">
            <mxPoint x="100" y="400" as="sourcePoint" />
            <mxPoint x="270" y="410" as="targetPoint" />
          </mxGeometry>
        </mxCell>
        <mxCell id="wTl5N8vqSqgQVyRXSi7D-7" value="`x`" style="text;html=1;align=center;verticalAlign=middle;whiteSpace=wrap;rounded=0;fontSize=20;" vertex="1" parent="1">
          <mxGeometry x="340" y="383" width="60" height="30" as="geometry" />
        </mxCell>
        <mxCell id="wTl5N8vqSqgQVyRXSi7D-8" value="`y`" style="text;html=1;align=center;verticalAlign=middle;whiteSpace=wrap;rounded=0;fontSize=20;" vertex="1" parent="1">
          <mxGeometry x="640" y="383" width="60" height="30" as="geometry" />
        </mxCell>
        <mxCell id="wTl5N8vqSqgQVyRXSi7D-9" value="`\theta`" style="text;html=1;align=center;verticalAlign=middle;whiteSpace=wrap;rounded=0;fontSize=20;opacity=20;textOpacity=20;" vertex="1" parent="1">
          <mxGeometry x="40" y="383" width="60" height="30" as="geometry" />
        </mxCell>
      </root>
    </mxGraphModel>
  </diagram>
</mxfile>
